<svg width="48" height="48" viewBox="0 0 240 240" fill="none" xmlns="http://www.w3.org/2000/svg" role="img" aria-label="6 Empire mark">
  <defs>
    <linearGradient id="mg" x1="0" y1="0" x2="1" y2="1">
      <stop offset="0" stop-color="#B8922E"/>
      <stop offset="0.5" stop-color="#F4D98B"/>
      <stop offset="1" stop-color="#B8922E"/>
    </linearGradient>
  </defs>
  <g stroke="url(#mg)" stroke-width="11" stroke-linecap="round" fill="none">
    <path d="M120 116 C120 70 150 44 176 52 C150 58 142 84 142 116 C142 140 130 150 120 150"/>
    <path d="M124 120 C170 120 196 150 188 176 C182 150 156 142 124 142 C100 142 90 130 90 120"/>
    <path d="M120 124 C120 170 90 196 64 188 C90 182 98 156 98 124 C98 100 110 90 120 90"/>
    <path d="M116 120 C70 120 44 90 52 64 C58 90 84 98 116 98 C140 98 150 110 150 120"/>
  </g>
  <path d="M120 100 L126 120 L120 140 L114 120 Z M100 120 L120 114 L140 120 L120 126 Z" fill="#F4D98B"/>
</svg>
