<svg width="1200" height="1200" viewBox="0 0 1200 1200" xmlns="http://www.w3.org/2000/svg">
  <defs>
    <radialGradient id="bg" cx="35%" cy="30%" r="90%">
      <stop offset="0%" stop-color="#241a0c"/>
      <stop offset="45%" stop-color="#140e07"/>
      <stop offset="100%" stop-color="#070503"/>
    </radialGradient>
    <linearGradient id="vein" x1="0" y1="0" x2="1" y2="1">
      <stop offset="0" stop-color="#5a3f12"/>
      <stop offset="0.5" stop-color="#caa44a"/>
      <stop offset="1" stop-color="#7a5616"/>
    </linearGradient>
    <filter id="soft"><feGaussianBlur stdDeviation="1.1"/></filter>
  </defs>
  <rect width="1200" height="1200" fill="url(#bg)"/>
  <g stroke="url(#vein)" fill="none" filter="url(#soft)" opacity="0.55">
    <path d="M-20 180 C 240 220, 360 60, 560 160 S 900 120, 1220 40" stroke-width="2.2"/>
    <path d="M-20 420 C 200 480, 420 360, 640 470 S 980 420, 1220 520" stroke-width="1.6"/>
    <path d="M120 -20 C 200 240, 80 420, 260 640 S 180 980, 360 1220" stroke-width="2"/>
    <path d="M520 -20 C 600 220, 460 420, 640 660 S 560 980, 720 1220" stroke-width="1.4"/>
    <path d="M880 -20 C 940 260, 800 460, 1000 700 S 900 1000, 1080 1220" stroke-width="1.8"/>
    <path d="M-20 760 C 260 820, 520 720, 760 820 S 1020 800, 1220 880" stroke-width="1.5"/>
    <path d="M-20 1020 C 300 1060, 560 980, 820 1060 S 1040 1040, 1220 1100" stroke-width="1.2"/>
  </g>
  <g stroke="url(#vein)" fill="none" opacity="0.85" filter="url(#soft)">
    <path d="M-20 200 C 260 240, 380 90, 580 180" stroke-width="1"/>
    <path d="M140 0 C 210 230, 110 410, 280 630" stroke-width="1"/>
    <path d="M900 0 C 950 250, 820 450, 1010 690" stroke-width="0.9"/>
  </g>
</svg>
